<?xml version="1.0" standalone="no"?>
<!DOCTYPE svg PUBLIC "-//W3C//DTD SVG 20010904//EN"
 "http://www.w3.org/TR/2001/REC-SVG-20010904/DTD/svg10.dtd">
<svg version="1.0" xmlns="http://www.w3.org/2000/svg"
 width="700.000000pt" height="700.000000pt" viewBox="0 0 700.000000 700.000000"
 preserveAspectRatio="xMidYMid meet">
<metadata>
Created by potrace 1.14, written by Peter Selinger 2001-2017
</metadata>
<g transform="translate(0.000000,700.000000) scale(0.100000,-0.100000)"
fill="#000000" stroke="none">
<path d="M999 6996 c-2 -2 -24 -6 -49 -9 -25 -3 -79 -15 -121 -26 -419 -108
-746 -471 -814 -901 -10 -64 -14 -244 -15 -738 l0 -652 972 1 c913 1 977 2
1045 19 83 22 158 57 224 105 25 18 181 181 345 362 300 329 359 394 424 464
19 20 62 67 95 104 32 36 68 77 80 89 19 21 199 217 220 240 6 6 73 81 150
166 77 85 153 169 170 186 16 17 60 65 96 105 37 41 78 86 90 100 13 14 62 68
109 119 47 52 108 119 136 149 29 31 64 71 79 89 l27 32 -1630 0 c-896 0
-1631 -2 -1633 -4z"/>
<path d="M4819 6980 c-9 -11 -54 -62 -100 -112 -46 -50 -92 -99 -101 -110 -9
-11 -54 -60 -100 -110 -46 -50 -93 -102 -105 -116 -13 -13 -58 -63 -100 -110
-43 -47 -85 -93 -93 -102 -8 -9 -51 -56 -95 -104 -44 -49 -89 -98 -100 -110
-11 -13 -63 -69 -115 -126 -133 -145 -134 -146 -213 -233 -39 -43 -79 -88 -89
-100 -11 -12 -45 -49 -76 -82 -31 -34 -91 -99 -132 -144 -115 -127 -119 -132
-446 -491 -88 -96 -175 -192 -194 -214 -19 -21 -48 -53 -65 -70 -46 -50 -181
-198 -202 -222 -10 -12 -61 -68 -113 -125 -92 -100 -142 -155 -245 -268 -27
-31 -61 -67 -75 -82 -14 -14 -40 -44 -59 -65 -32 -36 -230 -253 -241 -264 -3
-3 -48 -52 -100 -110 -52 -58 -97 -107 -100 -110 -3 -3 -50 -54 -105 -115 -54
-60 -117 -130 -140 -154 -22 -24 -44 -49 -50 -55 -5 -7 -35 -39 -65 -71 -30
-33 -90 -99 -133 -146 -42 -48 -87 -97 -100 -111 -12 -13 -63 -69 -113 -124
-50 -54 -110 -121 -135 -148 -24 -28 -51 -57 -59 -66 -8 -9 -42 -46 -75 -81
-53 -57 -182 -199 -240 -263 -45 -50 -193 -213 -235 -259 -25 -27 -60 -65 -78
-86 l-33 -36 4 -360 c3 -226 9 -379 17 -410 38 -161 112 -329 195 -440 121
-162 312 -311 471 -370 27 -10 54 -22 59 -26 16 -11 176 -48 241 -55 32 -4
306 -7 608 -8 l548 -1 97 105 c53 57 119 129 146 160 28 30 73 79 101 110 29
30 67 72 85 93 19 21 50 56 69 76 19 21 73 80 120 131 47 52 134 149 195 215
60 66 114 125 120 131 5 6 44 48 85 94 41 46 84 93 95 104 11 12 61 66 110
121 50 55 95 105 100 111 43 46 177 193 192 210 10 12 61 68 113 124 52 57
104 114 115 126 11 12 38 42 60 66 22 24 78 86 125 137 47 51 96 105 109 120
13 14 42 46 65 71 22 25 82 90 131 145 50 55 93 102 96 105 3 3 56 61 119 130
62 69 134 148 159 175 26 28 94 102 151 165 57 63 120 132 139 154 20 21 45
48 56 60 11 13 58 64 105 115 47 52 92 101 100 111 24 28 162 179 190 209 14
14 92 100 174 191 83 91 157 172 165 181 16 16 28 29 186 204 50 54 97 106
105 115 8 9 51 56 95 104 44 49 92 102 107 118 15 16 58 63 95 105 37 41 79
87 93 102 14 14 66 71 115 126 138 153 167 184 211 231 23 24 65 72 95 106
l55 63 -2 315 c-1 173 -4 339 -8 369 -46 359 -268 683 -584 847 -135 71 -214
97 -377 124 -27 5 -304 9 -615 9 -557 1 -565 1 -581 -19z"/>
<path d="M5001 2332 c-126 -21 -271 -104 -361 -206 -15 -17 -38 -43 -51 -57
-61 -65 -189 -206 -206 -225 -10 -12 -56 -63 -103 -114 -47 -51 -89 -98 -95
-104 -20 -23 -201 -220 -215 -236 -8 -9 -53 -58 -100 -110 -47 -52 -112 -124
-145 -160 -77 -83 -127 -139 -200 -220 -32 -36 -65 -72 -74 -81 -9 -9 -52 -56
-96 -104 -44 -49 -85 -93 -90 -99 -6 -6 -53 -58 -105 -116 -109 -120 -155
-171 -190 -209 -93 -100 -214 -233 -229 -253 l-19 -23 1632 1 c1620 1 1632 1
1731 22 225 48 410 147 570 306 174 175 279 386 321 646 11 74 11 1341 -1
1348 -5 3 -435 6 -954 7 -719 0 -962 -3 -1020 -13z"/>
</g>
</svg>
