<svg viewBox="0 0 1920 493" xmlns="http://www.w3.org/2000/svg" xml:space="preserve" style="fill-rule:evenodd;clip-rule:evenodd;stroke-linejoin:round;stroke-miterlimit:2"><path d="M458.501 59.256v254.748c0 .248.001.496.004.743 0 0 1.298 87.244 69.437 139.642 27.793 21.372 66.877 38.035 123.035 38.035 78.735 0 124.831-29.815 153.05-62.46 43.131-49.899 43.925-112.008 43.931-115.982V59.256c0-31.864-25.869-57.734-57.733-57.734-31.864 0-57.734 25.87-57.734 57.734v254.971s.041 30.013-24.241 48.043c-12.702 9.432-31.275 14.687-57.273 14.687-23.767 0-40.884-5.056-52.647-14.101-22.757-17.5-24.262-46.072-24.36-49.296-.002-.069-.002-254.304-.002-254.304 0-31.864-25.87-57.734-57.734-57.734s-57.733 25.87-57.733 57.734zm860.025 0v254.748c0 .248.001.496.005.743 0 0 1.298 87.244 69.436 139.642 27.793 21.372 66.877 38.035 123.036 38.035 78.734 0 124.83-29.815 153.049-62.46 43.131-49.899 43.925-112.008 43.932-115.982V59.256c0-31.864-25.87-57.734-57.734-57.734s-57.734 25.87-57.734 57.734v254.748l.001.223s.04 30.013-24.242 48.043c-12.702 9.432-31.275 14.687-57.272 14.687-23.768 0-40.885-5.056-52.648-14.101-22.756-17.5-24.262-46.072-24.36-49.296-.002-.069-.002-254.304-.002-254.304 0-31.864-25.869-57.734-57.733-57.734-31.865 0-57.734 25.87-57.734 57.734zm-374.019.329v370.316c0 31.864 25.87 57.734 57.734 57.734s57.734-25.87 57.734-57.734V59.585c0-31.864-25.87-57.734-57.734-57.734s-57.734 25.87-57.734 57.734zm860.026 0v370.316c0 31.864 25.869 57.734 57.733 57.734 31.864 0 57.734-25.87 57.734-57.734V59.585c0-31.864-25.87-57.734-57.734-57.734s-57.733 25.87-57.733 57.734zM320.473.011H57.736C25.881.011.019 25.873.019 57.728s25.862 57.717 57.717 57.717h152.068L10.648 396.166a57.735 57.735 0 0 0 47.088 91.14h263.802c31.865 0 57.734-25.87 57.734-57.734s-25.869-57.734-57.734-57.734H169.482L368.626 91.134c8.791-12.391 11.996-27.074 10.128-41.042a57.3 57.3 0 0 0-2.692-11.33 57.445 57.445 0 0 0-21.118-28.121A57.454 57.454 0 0 0 320.473.011z" style="fill:#d8efff"/></svg>