<?xml version="1.0" encoding="UTF-8" standalone="no"?><!DOCTYPE svg PUBLIC "-//W3C//DTD SVG 1.1//EN" "http://www.w3.org/Graphics/SVG/1.1/DTD/svg11.dtd"><svg width="100%" height="100%" viewBox="0 0 410 410" version="1.1" xmlns="http://www.w3.org/2000/svg" xmlns:xlink="http://www.w3.org/1999/xlink" xml:space="preserve" xmlns:serif="http://www.serif.com/" style="fill-rule:evenodd;clip-rule:evenodd;stroke-linejoin:round;stroke-miterlimit:2;"><g><path d="M409.257,80.441c0,-44.397 -36.044,-80.441 -80.441,-80.441l-248.375,0c-44.397,0 -80.441,36.044 -80.441,80.441l-0,248.375c-0,44.397 36.044,80.441 80.441,80.441l248.375,0c44.397,0 80.441,-36.044 80.441,-80.441c0,0 0,-248.375 0,-248.375Z" style="fill:#fff;"/><path d="M387.257,80.441c0,-32.254 -26.186,-58.441 -58.441,-58.441l-248.375,-0c-32.254,-0 -58.441,26.187 -58.441,58.441l-0,248.375c-0,32.255 26.187,58.441 58.441,58.441l248.375,0c32.255,0 58.441,-26.186 58.441,-58.441l0,-248.375Z" style="fill:#16134a;"/><path d="M368.257,259.171l-87.861,0c-8.069,0 -15.764,3.401 -21.197,9.367c-24.075,26.436 -90.813,99.719 -90.813,99.719l147.51,0c28.899,0 52.361,-23.462 52.361,-52.361l0,-56.725Zm-52.361,-218.171l-48.168,-0l-226.728,248.965l-0,25.931c-0,28.899 23.462,52.361 52.361,52.361l48.168,0l226.728,-248.965l0,-25.931c0,-28.899 -23.462,-52.361 -52.361,-52.361Zm-222.535,-0c-28.899,-0 -52.361,23.462 -52.361,52.361l-0,56.725l87.861,-0c8.069,-0 15.765,-3.401 21.198,-9.367c24.074,-26.435 90.812,-99.719 90.812,-99.719l-147.51,-0Z" style="fill:url(#_Linear1);"/></g><defs><linearGradient id="_Linear1" x1="0" y1="0" x2="1" y2="0" gradientUnits="userSpaceOnUse" gradientTransform="matrix(327.257,327.257,-327.257,327.257,41,41)"><stop offset="0" style="stop-color:#6f84fb;stop-opacity:1"/><stop offset="1" style="stop-color:#ec5ece;stop-opacity:1"/></linearGradient></defs></svg>